<svg xmlns="http://www.w3.org/2000/svg" viewBox="0 0 1920 1282">
  <defs>
    <style>
    .cls-1, .cls-15 {
      fill: transparent;
    }
      .cls-17, .cls-2 {
        fill: #a4fbf3;
      }

      .cls-3 {
        fill: #dbb32a;
      }

      .cls-4 {
        fill: #fdd748;
      }

      .cls-5 {
        fill: #d48e51;
      }

      .cls-11, .cls-24, .cls-27, .cls-6 {
        fill: #121d2f;
      }

      .cls-7 {
        fill: #d66322;
      }

      .cls-8 {
        fill: #b5743c;
      }

      .cls-10, .cls-12, .cls-14, .cls-9 {
        fill: none;
      }

      .cls-9 {
        stroke: #b5743c;
        stroke-width: 5px;
      }

      .cls-10, .cls-12, .cls-9 {
        stroke-linecap: round;
        stroke-linejoin: round;
      }

      .cls-10 {
        stroke: #dbb32a;
        stroke-width: 8px;
      }

      .cls-11 {
        opacity: 0.06;
      }

      .cls-12, .cls-15 {
        stroke: #fec8ff;
      }

      .cls-12, .cls-17 {
        stroke-width: 2px;
      }

      .cls-13 {
        fill: #ffd64a;
        opacity: 0.44;
      }

      .cls-14 {
        stroke: #ffd64a;
        stroke-width: 9px;
      }

      .cls-14, .cls-15, .cls-17, .cls-24, .cls-27 {
        stroke-miterlimit: 10;
      }

      .cls-16 {
        fill: #050505;
      }

      .cls-17 {
        stroke: #121d2f;
      }

      .cls-18 {
        fill: #e0e0e0;
      }

      .cls-19 {
        fill: #f2cc3c;
      }

      .cls-20 {
        fill: #611800;
      }

      .cls-21 {
        fill: #e6c143;
      }

      .cls-22 {
        fill: #34b3a7;
      }

      .cls-23 {
        fill: #76e8e0;
      }

      .cls-24, .cls-27 {
        stroke: #fdd748;
      }

      .cls-24 {
        stroke-width: 10px;
      }

      .cls-25 {
        fill: #ff0039;
      }

      .cls-26 {
        fill: #8ed9d2;
      }

      .cls-27 {
        stroke-width: 14px;
      }
    </style>
  </defs>
  <g id="background">
    <rect class="cls-1" width="1920" height="1282"/>
    <path class="cls-2" d="M1732.58,677.811c-18.17-45.3812-57.1733-230.1475,22.6191-324.1514S1668.16,78.0481,1555.8381,74.0377s-315.4934,65.5555-376.61,66.4291S1022.5258,46.5543,741.3471,30.2012c-105.3848-6.129-520.1617-15.28-591.189,158.1412s-44.6953,274.71,0,366.2911C235.3511,729.195,0,670.5139,0,933.8905,0,1034.3775,135.2919,1281.6458,619.2687,1282s844.8378-188.579,844.8378-188.579"/>
  </g>
  <g id="character">
    <path class="cls-3" d="M1687.7911,823.0711,1755.2,1020.1366s-203.9469,38.2666-259.793,39.7236c-3.1451-65.2139-1.67-152.8417-1.67-152.8417l124.6506-20.1894Z"/>
    <path class="cls-4" d="M1486.42,521.5977s65.9279,18.8335,126.8486,16.3769,174.417,131.8346,174.417,131.8346S1891.1673,773.56,1908.6924,806.0261s-6.6762,58.4642-91.7983,60.6136-560.4877,0-560.4877,0-16.9277-8.4918-6.9933-42.0683-17.5251-49.1308-17.5251-49.1308L1130.87,739.4113s36.7588-109.8551,59.2911-139.2689,160.23-67.4,160.23-67.4l54.2445,16.6964,41.7265-7.37Z"/>
    <path class="cls-5" d="M1272.0417,251.2763c-5.5059,53.9882-5.5059,150.4776,16.5175,201.02s75.9808,24.1224,75.9808,24.1224v70.64l103.7451-7.021s-12.348-84.2958-10.1457-146.3248c13.855,2.9267,29.5014-1.41,29.5014-1.41l6.0952-101.9717-58.7212-68.9211Z"/>
    <path class="cls-5" d="M1258.7275,767.2521s-109.4581-27.8408-126.1487-40.1236-95.1365,38.4859-110.158,47.4932,12.5179,67.9644-20.0288,72.0586c7.5108,23.7466,26.4946,40.1488,26.4946,40.1488l73.6491-5.7571s40.0575-18.8335,44.23-49.1309c30.0432,28.66,74.2736,46.5706,102.1257,25.5921C1261.41,832.1489,1258.7275,767.2521,1258.7275,767.2521Z"/>
    <path class="cls-3" d="M1406.3049,563.3589c34.2073.7459,72.2149-14.7392,87.4311-32.7539s-29.7232-24.8155-29.7232-24.8155-10.14,29.7286-44.3554,32.1851-48.48-19.47-55.1174-26.0205c-24.7071,2.6329-37.5745,16.236-17.4868,34.209C1358.5236,556.426,1368.751,562.54,1406.3049,563.3589Z"/>
    <path class="cls-6" d="M1444.7316,199.5644c-21.4578-59.0115-73.4767-27.1317-86.4815-23.74s-95.5848,27.81-113.7914,27.1318a202.7582,202.7582,0,0,0,46.8171,22.3837s-40.965,23.74-72.8266,14.9224c25.3593,41.376,116.3924,51.55,150.855,31.2015s60.472-15.6007,54.62,19.6706-29.9109,57.6549-8.4531,61.0464,20.1573-17.6356,29.2606-29.8449,35.1128-14.2442,39.0143,10.8527,4.7184,49.5356-25.6065,60.5248c-.7529,17.2824-.1933,24.2935-.1933,24.2935s31.7529-1.0306,39.18-30.0369,14.58-81.9132,17.1808-112.4364-4.5517-77.3255-30.5611-82.7518S1444.7316,199.5644,1444.7316,199.5644Z"/>
    <ellipse cx="1360.7054" cy="341.7185" rx="8.9925" ry="11.2975"/>
    <ellipse cx="1303.513" cy="343.8704" rx="8.9925" ry="11.2975"/>
    <path class="cls-7" d="M1332.2876,350.4606c-6.1249,22.138-21.7288,23.9-29.5262,31.61s-10.7894,21.5328-.1686,28.0837S1347.5153,406.5478,1332.2876,350.4606Z"/>
    <path d="M1356.3889,299.9356a17.8032,17.8032,0,0,1,11.2073-.8488A23.5252,23.5252,0,0,1,1377.92,304.4a29.0263,29.0263,0,0,1,2.0567,2.0955c.3208.3683.6742.7119.9605,1.1049.28.3967.5562.7964.8238,1.2012a28.1476,28.1476,0,0,1,1.5112,2.4677c.3862.8825.7917,1.7459,1.1291,2.6367a11.1028,11.1028,0,0,1,.4849,1.3338l.3316,1.3812c.1949.9268.3742,1.8472.5115,2.768a21.07,21.07,0,0,1,.0639,2.8277,19.7453,19.7453,0,0,1-.2683,2.8241,38.2908,38.2908,0,0,1-3.4746-4.2076c-.5686-.6605-1.0952-1.3215-1.606-1.9761a19.959,19.959,0,0,0-1.5135-1.92c-.54-.602-1.0129-1.2313-1.5046-1.8416-.473-.62-1.0617-1.1363-1.5511-1.7239-.2545-.286-.5007-.5771-.7424-.8712-.2552-.2813-.5418-.528-.8069-.7962-.5481-.5158-1.03-1.1024-1.586-1.6038a43.9982,43.9982,0,0,0-7.2614-5.5289A64.89,64.89,0,0,0,1356.3889,299.9356Z"/>
    <path d="M1316.4741,301.7838a64.8828,64.8828,0,0,0-9.0893,4.6364,43.9948,43.9948,0,0,0-7.2615,5.5289c-.5558.5014-1.0379,1.088-1.5859,1.6038-.2651.2682-.5518.5149-.8069.7963-.2417.294-.4878.5851-.7423.8711-.4894.5877-1.0783,1.1034-1.5513,1.7239-.4917.61-.9641,1.24-1.5045,1.8416a19.9433,19.9433,0,0,0-1.5135,1.92c-.5108.6546-1.0373,1.3156-1.6059,1.9762a38.3223,38.3223,0,0,1-3.4746,4.2075,19.7313,19.7313,0,0,1-.2685-2.8241,21.0533,21.0533,0,0,1,.064-2.8277c.1372-.9208.3165-1.8412.5116-2.768l.3314-1.3812a11.12,11.12,0,0,1,.4849-1.3338c.3375-.8908.743-1.7542,1.1291-2.6367a28.1094,28.1094,0,0,1,1.5114-2.4676c.2675-.4048.5433-.8046.8237-1.2013.2864-.393.64-.7366.9606-1.1049a28.9818,28.9818,0,0,1,2.0565-2.0955,23.527,23.527,0,0,1,10.3239-5.3136A17.8025,17.8025,0,0,1,1316.4741,301.7838Z"/>
    <path class="cls-6" d="M1348.8359,427.0633a104.0346,104.0346,0,0,0,11.1447-4.4963,32.2732,32.2732,0,0,0,8.6219-5.9013,28.0918,28.0918,0,0,0,5.51-8.2826c.3715-.811.735-1.6456,1.056-2.5266.3783-.8635.6385-1.7823.9967-2.71.3373-.9309.6089-1.9.9782-2.8889.3084-.993.6461-2.0131,1.0831-3.0744a21.3779,21.3779,0,0,1,1.465,3.0013,23.92,23.92,0,0,1,.8941,3.1965,19.4966,19.4966,0,0,1,.3811,3.3435c.003.5652.0494,1.14.01,1.7112l-.16,1.7245a20.2527,20.2527,0,0,1-2.13,6.7619,21.1082,21.1082,0,0,1-4.4576,5.7121,23.8706,23.8706,0,0,1-12.4932,5.7809,26.3433,26.3433,0,0,1-6.5861.1885A20.7675,20.7675,0,0,1,1348.8359,427.0633Z"/>
    <path class="cls-8" d="M1364.54,476.4184s27.2064-14.2154,43.1157-37.2166c6.3637,20.6218-36.2241,65.4866-43.1157,66.3162v-29.1"/>
    <path class="cls-8" d="M1439.1439,384.2347a21.0041,21.0041,0,0,0,3.7692,4.6615,16.8526,16.8526,0,0,0,4.5748,3.0646,11.305,11.305,0,0,0,1.24.49l.616.2316.644.1681c.43.1053.8453.2357,1.2749.3249.4434.0583.8778.1348,1.3119.2043.2178.0327.43.0791.65.1021l.6712.0384c.4458.0313.89.0546,1.3313.098.9.02,1.8122-.0292,2.7162.0231l.2041,5.9965c-1.1351-.0045-2.268-.0212-3.4021-.1312l-1.7051-.2911-.8468-.156c-.2805-.0714-.5594-.1688-.838-.2527l-1.6591-.534c-.54-.2212-1.0678-.4908-1.5949-.7362l-.7843-.3809-.74-.4788a15.57,15.57,0,0,1-1.4328-.9948,15.7994,15.7994,0,0,1-4.3533-5.2084A13.647,13.647,0,0,1,1439.1439,384.2347Z"/>
    <path class="cls-3" d="M1481.4885,894.9049H1268.9829s-26.9195,140.154-45.1366,179.0768c78.0734,3.8923,274.4127-14.1215,274.4127-14.1215Z"/>
    <path class="cls-9" d="M1094.717,873.2085s32.1094-70.2223,36.1533-81.972,14.8852-7.52,14.8852-7.52"/>
    <path class="cls-9" d="M1065.5626,869.8957s36.3431-88.0527,38.4351-93.615,14.6438-10.777,19.8738-10.0817"/>
    <path class="cls-9" d="M1027.1167,868.7126s46.1692-98.39,48.3028-103.3462,12.5411-15.0711,19.2975-14.2579"/>
    <path class="cls-8" d="M1066.6907,779.41l-19.1765,20.5111s2.27,14.9039,0,22.2494C1053.4218,811.5417,1066.6907,779.41,1066.6907,779.41Z"/>
    <path class="cls-3" d="M1258.7275,767.2521a8.7434,8.7434,0,0,1,.1829-7.2534,16.2973,16.2973,0,0,1,4.8059-5.925,33.5762,33.5762,0,0,1,13.1906-5.983c9.2463-2.1526,18.5608-1.879,27.5422-.7114,4.5021.58,8.9449,1.3785,13.3564,2.2426,2.2046.4414,4.4073.868,6.5964,1.3528.523.1093,1.149.2647,1.5875.3363.4664.0733.87.1732,1.3981.229.9912.14,2.033.2483,3.09.3465,8.5189.7281,17.3589.9225,26.1067,1.141,17.551.3614,35.15.4149,52.7452.4023q26.3964-.0321,52.8051-.2986,52.8135-.4974,105.6355-1.45,52.8174-.9138,105.6322-2.1l-2.6813,6.88-71.65-68.9893a4,4,0,1,1,5.5488-5.7628l71.65,68.9892a3.9989,3.9989,0,0,1-2.6812,6.88q-52.8462,1.1975-105.6808,2.1008-52.8426.9066-105.699,1.4508-26.43.2427-52.87.2989c-17.63.0125-35.2593-.0406-52.9271-.4042-8.8557-.2249-17.6386-.4046-26.6723-1.1733-1.1356-.1057-2.2834-.2241-3.4729-.3914-.5671-.06-1.24-.2022-1.86-.3081l-1.6478-.3246c-2.1213-.4139-4.24-.8376-6.3729-1.153-4.2613-.6612-8.5421-1.1145-12.8061-1.384-4.264-.2725-8.5087-.38-12.7076-.3546a111.3961,111.3961,0,0,0-12.4159.6835,49.936,49.936,0,0,0-11.6559,2.575,16.5666,16.5666,0,0,0-4.964,2.8158A9.2739,9.2739,0,0,0,1258.7275,767.2521Z"/>
    <line class="cls-10" x1="1616.4864" y1="733.0094" x2="1673.4952" y2="753.5804"/>
  </g>
  <g id="chart">
    <rect class="cls-11" x="373.1676" y="194.1602" width="588.4334" height="325.5679"/>
    <line class="cls-12" x1="449.7737" y1="441.7417" x2="449.7737" y2="518.977"/>
    <path class="cls-2" d="M373.1676,468.0293s37.5735-9.0129,52.3028-9.764,12.52-14.27,23.5668-15.7725,17.6752-1.5022,28.7221-18.7768,19.1481-15.0215,31.668-18.7769,15.4657-18.7768,27.2492-21.7811,27.2492,1.18,39.0326-7.6716,21.3575-33.6374,31.668-35.8906,28.7221-.7511,33.1408-18.7768,13.2564-71.352,23.5669-71.352,38.2962,30.794,43.4514,5.2575,24.3033-74.3562,30.195-31.545,2.9459,105.9013,33.1409,106.6523c18.4116,0,15.4658,6.76,23.5669,12.7683s18.4116,0,19.8845-15.7726,10.3105-45.8154,31.668-48.0686,19.8845-15.7726,23.5669-26.2876,18.4116-21.2265,50.0795-18.0257l0,285.2825h-546.47Z"/>
    <path class="cls-13" d="M373.1676,491.5245S437.5081,447.73,447.4255,472.36s73.7967-34.947,82.3009-34.194,53.4892,16.5656,79.3286,38.4022,56.4128-170.1745,79.6407-170.9275S754.5168,414.4713,768.3364,430.46s67.6775-63.6265,79.6406-73.5159,71.6609,43.07,71.6609,43.07l0,119.7138h-546.47Z"/>
    <line class="cls-14" x1="449.7737" y1="441.7417" x2="449.7737" y2="522.8874"/>
    <line class="cls-14" x1="529.4144" y1="387.1247" x2="529.4144" y2="521.2697"/>
    <line class="cls-14" x1="609.055" y1="341.2681" x2="609.055" y2="519.652"/>
    <line class="cls-14" x1="688.6957" y1="264.7893" x2="688.6957" y2="518.0342"/>
    <line class="cls-14" x1="768.3364" y1="329.0831" x2="768.3364" y2="523.7018"/>
    <line class="cls-14" x1="847.977" y1="278.7589" x2="847.977" y2="521.2697"/>
    <polyline class="cls-14" points="373.168 182.33 373.168 436.6 373.168 519.728 975.687 519.728"/>
    <ellipse class="cls-15" cx="449.7737" cy="441.7417" rx="12.5778" ry="12.4555"/>
    <ellipse class="cls-15" cx="529.7264" cy="384.9933" rx="12.5778" ry="12.4555"/>
    <ellipse class="cls-15" cx="609.055" cy="336.4684" rx="12.5778" ry="12.4555"/>
    <ellipse class="cls-15" cx="688.2822" cy="260.6482" rx="12.5778" ry="12.4555"/>
    <ellipse class="cls-15" cx="769.4238" cy="324.0129" rx="12.5778" ry="12.4555"/>
    <ellipse class="cls-15" cx="847.977" cy="273.1037" rx="12.5778" ry="12.4555"/>
  </g>
  <g id="environment">
    <rect class="cls-16" x="201.5608" y="866.6397" width="1455.1374" height="56.5302" rx="11.1961"/>
    <rect class="cls-16" x="1464.1065" y="907.0185" width="59.259" height="203.6982"/>
    <rect class="cls-16" x="326.6631" y="907.0185" width="59.259" height="297.4966"/>
    <path class="cls-17" d="M1236.65,866.64H1019.5564L902.37,613.0616a22.4564,22.4564,0,0,0-20.4274-12.9193h-430.85L592.9094,907.0185h657.85a7.9679,7.9679,0,0,0,7.9679-7.9679V888.7175A22.0778,22.0778,0,0,0,1236.65,866.64Z"/>
    <path class="cls-6" d="M1016.6023,907.0185H580.6934a14.599,14.599,0,0,1-13.28-8.3988L437.0858,616.6065a11.6691,11.6691,0,0,1,10.8153-16.4641H874.7846Z"/>
    <ellipse class="cls-18" cx="695.4569" cy="738.7105" rx="49.1107" ry="50.9002" transform="translate(-224.4 310.6722) rotate(-21.7734)"/>
    <ellipse class="cls-19" cx="361.2246" cy="727.4177" rx="86.2009" ry="27.1119"/>
    <ellipse class="cls-4" cx="361.2246" cy="727.4177" rx="79.0257" ry="24.8551"/>
    <path class="cls-20" d="M436.5987,734.9079c-10.103,10.0666-40.0287,17.3649-75.3741,17.3649-34.73,0-64.2273-7.0464-74.8284-16.8416-2.7212-2.5143,32.28-10.6838,75.9249-10.6838S438.9709,732.5442,436.5987,734.9079Z"/>
    <path class="cls-4" d="M447.4255,727.4177c0,14.9734-38.5935,27.1118-86.2009,27.1118s-86.2009-12.1384-86.2009-27.1118l25.9077,132.3c0,14.9735,26.9942,27.1119,60.2932,27.1119s60.2931-12.1384,60.2931-27.1119Z"/>
    <path class="cls-19" d="M327.9923,776.0677c-5.2-3.9607-13.2189-8.45-22.57-8.45-22.2365,0-40.2626,17.6874-40.2626,39.506s18.0261,39.5059,40.2626,39.5059c9.0671,0,16.9259-1.5448,23.1962-5.2441,5.1813-3.0568-12.725-17.0712-17.0581-16.1245a28.9112,28.9112,0,0,1-6.1381.6434,18.7841,18.7841,0,1,1,0-37.5614,33.1962,33.1962,0,0,1,5.3931.3923C314.4253,789.334,330.2928,777.82,327.9923,776.0677Z"/>
    <polygon class="cls-21" points="760.547 26.726 742.973 21.903 742.976 3.046 748.164 0 760.547 26.726"/>
    <polygon class="cls-21" points="724.807 23.998 708.792 32.694 696.55 22.117 700.855 16.081 724.807 23.998"/>
    <polygon class="cls-21" points="679.743 82.875 692.347 108.113 687.16 111.159 674.555 85.921 679.743 82.875"/>
    <polygon class="cls-21" points="714.924 110.647 735.918 132.487 730.73 135.533 704.082 126.104 714.924 110.647"/>
    <polygon class="cls-21" points="750.371 115.946 784.578 122.032 758.282 133.94 753.322 134.57 750.371 115.946"/>
    <polygon class="cls-21" points="779.59 95.221 786.314 78.319 799.869 103.527 794.681 106.574 779.59 95.221"/>
    <polygon class="cls-21" points="786.207 60.086 779.284 43.274 810.168 54.76 804.98 57.806 786.207 60.086"/>
    <polygon class="cls-21" points="686.478 33.494 695.712 65.265 674.399 63.915 682.652 37.317 686.478 33.494"/>
    <path class="cls-21" d="M753.1638,19.24a52.1572,52.1572,0,1,0,36.4981,64.1016A52.34,52.34,0,0,0,753.1638,19.24ZM764.01,74.2352A23.25,23.25,0,1,1,747.774,45.72,23.2827,23.2827,0,0,1,764.01,74.2352Z"/>
    <path class="cls-4" d="M758.121,16.2024a53.246,53.246,0,1,0,37.26,65.44A53.4326,53.4326,0,0,0,758.121,16.2024ZM764.01,74.2352A23.25,23.25,0,1,1,747.774,45.72,23.2827,23.2827,0,0,1,764.01,74.2352Z"/>
    <path class="cls-21" d="M751.25,41.867a25.6089,25.6089,0,0,0-31.4648,17.8279c-.1037.3747-.1948.75-.2807,1.1249A23.2477,23.2477,0,1,1,736.531,90.7231c.3669.1184.7364.2325,1.1119.3355A25.5195,25.5195,0,1,0,751.25,41.867Z"/>
    <polygon class="cls-4" points="765.735 23.679 748.161 18.857 748.164 0 775.428 7.482 765.735 23.679"/>
    <polygon class="cls-4" points="729.995 20.951 713.98 29.647 700.855 16.081 725.7 2.59 729.995 20.951"/>
    <polygon class="cls-4" points="702.354 43.729 696.873 61.07 677.975 60.397 686.478 33.494 702.354 43.729"/>
    <polygon class="cls-4" points="698.303 79.247 706.427 95.515 692.347 108.113 679.743 82.875 698.303 79.247"/>
    <polygon class="cls-4" points="720.112 107.601 737.289 113.679 735.918 132.487 709.269 123.057 720.112 107.601"/>
    <polygon class="cls-4" points="755.269 114.927 772.219 107.252 784.578 122.032 758.282 133.94 755.269 114.927"/>
    <polygon class="cls-4" points="784.778 92.174 791.502 75.273 810.301 77.307 799.869 103.527 784.778 92.174"/>
    <polygon class="cls-4" points="791.854 57.901 784.786 40.738 800.054 28.947 811.019 55.574 791.854 57.901"/>
    <polygon class="cls-22" points="1214.251 121.822 1209.94 96.634 1234.012 85.391 1240.991 90.161 1214.251 121.822"/>
    <polygon class="cls-22" points="1196.445 74.821 1175.806 59.675 1182.015 37.824 1192.284 39.69 1196.445 74.821"/>
    <polygon class="cls-22" points="1094.446 52.727 1069.738 83.782 1062.759 79.013 1087.467 47.958 1094.446 52.727"/>
    <polygon class="cls-22" points="1079.95 113.956 1064.577 153.635 1057.598 148.866 1053.762 109.41 1079.95 113.956"/>
    <polygon class="cls-22" points="1094.3 162.118 1106.907 209.176 1076.044 182.895 1072.285 176.973 1094.3 162.118"/>
    <polygon class="cls-22" points="1138.161 186.852 1163.741 185.308 1139.636 217.552 1132.658 212.783 1138.161 186.852"/>
    <polygon class="cls-22" points="1186.952 174.296 1204.289 155.479 1208.023 201.539 1201.044 196.77 1186.952 174.296"/>
    <polygon class="cls-22" points="1161.492 31.824 1126.438 62.498 1115.465 34.634 1154.333 29.247 1161.492 31.824"/>
    <path class="cls-22" d="M1219.4094,107.9835a73.4934,73.4934,0,1,0-60.0854,84.57A73.4781,73.4781,0,0,0,1219.4094,107.9835Zm-63.741,46.5718a32.6027,32.6027,0,1,1,26.7282-37.62A32.6858,32.6858,0,0,1,1155.6684,154.5553Z"/>
    <path class="cls-23" d="M1226.24,112.4652a75.0275,75.0275,0,1,0-61.34,86.3354A75.0119,75.0119,0,0,0,1226.24,112.4652Zm-70.5711,42.09a32.6027,32.6027,0,1,1,26.7282-37.62A32.6858,32.6858,0,0,1,1155.6684,154.5553Z"/>
    <path class="cls-22" d="M1189.3859,119.05a35.9514,35.9514,0,0,0-41.4995-29.3128c-.54.0919-1.073.2-1.6031.3146a32.604,32.604,0,1,1-28.0294,39.4522c.0673.5364.1418,1.0735.234,1.6117a35.9588,35.9588,0,0,0,70.898-12.0657Z"/>
    <polygon class="cls-23" points="1221.23 126.591 1216.919 101.404 1240.991 90.161 1247.68 129.236 1221.23 126.591"/>
    <polygon class="cls-23" points="1203.424 79.59 1182.785 64.445 1192.284 39.69 1224.304 63.186 1203.424 79.59"/>
    <polygon class="cls-23" points="1157.884 58.084 1132.483 61.469 1122.086 37.075 1161.492 31.824 1157.884 58.084"/>
    <polygon class="cls-23" points="1110.132 74.126 1094.205 94.144 1069.738 83.782 1094.446 52.727 1110.132 74.126"/>
    <polygon class="cls-23" points="1086.929 118.725 1089.402 144.157 1064.577 153.635 1060.741 114.18 1086.929 118.725"/>
    <polygon class="cls-23" points="1098.519 167.73 1118.412 184.67 1106.907 209.176 1076.044 182.895 1098.519 167.73"/>
    <polygon class="cls-23" points="1145.14 191.621 1170.72 190.077 1179.32 215.156 1139.636 217.552 1145.14 191.621"/>
    <polygon class="cls-23" points="1193.104 180.162 1210.803 160.952 1234.948 173.304 1207.491 203.105 1193.104 180.162"/>
    <rect class="cls-24" x="1567.6193" y="164.1974" width="347.3802" height="224.6618" rx="17.8709"/>
    <ellipse class="cls-4" cx="1851.5511" cy="182.8014" rx="7.5725" ry="7.5504"/>
    <ellipse class="cls-4" cx="1871.5191" cy="182.8014" rx="7.5725" ry="7.5504"/>
    <ellipse class="cls-25" cx="1890.2645" cy="182.8014" rx="7.5725" ry="7.5504"/>
    <rect class="cls-15" x="1592.5542" y="203.8145" width="66.3641" height="158.1189" rx="3.7569"/>
    <rect class="cls-2" x="1668.3134" y="205.4412" width="228.9124" height="19.28" rx="9.553"/>
    <rect class="cls-2" x="1668.3134" y="239.8106" width="228.9124" height="19.28" rx="9.553"/>
    <rect class="cls-2" x="1668.3134" y="274.18" width="228.9124" height="19.28" rx="9.553"/>
    <rect class="cls-2" x="1668.3134" y="308.5494" width="228.9124" height="19.28" rx="9.553"/>
    <rect class="cls-2" x="1668.3134" y="342.9188" width="228.9124" height="19.28" rx="9.553"/>
    <path class="cls-26" d="M338.134,740.72c45.14-77.15,11.9254-104.97-6.0107-118.8793s-9.9645-25.549,4.65-31.6518,27.2363-78.0159-4.65-100.3472c3.9858,18.0727.7266,91.198-35.1767,108.6179s2.626,31.6475,21.8907,42.7486S349.4591,688.0478,338.134,740.72Z"/>
    <path class="cls-26" d="M374.0189,738.8908c18.6-42.389,17.5636-54.9739,10.4426-72.1953s-38.3432-53.6513-16.4213-92.7307c11.9574-19.2085,27.9006-35.1052,27.9006-35.1052s-16.3157,26.0976-11.4793,54.1153,9.4864,30.9342,19.4509,46.6973S414.84,718.2741,374.0189,738.8908Z"/>
    <rect class="cls-27" x="502.7088" y="998.413" width="905.5928" height="216.1942" rx="87.2592"/>
    <g>
      <path class="cls-4" d="M643.2927,1066.1665v58.1223q0,10.8795-5.072,17.7383t-13.1132,6.8588q-9.6868,0-14.8038-11.4116-3.1523,6.1508-6.7625,8.78a14.7234,14.7234,0,0,1-8.91,2.6312,14.4678,14.4678,0,0,1-12.8846-6.8588q-4.4785-6.8588-4.4779-19.7486v-56.112H595.82v52.5052a17.3445,17.3445,0,0,0,.48,5.1441,1.8807,1.8807,0,0,0,1.9416,1.2417q2.7418,0,2.7418-5.9719v-52.9191h18.55v52.5052a16.632,16.632,0,0,0,.5028,5.085,1.92,1.92,0,0,0,1.9647,1.3008q2.7411,0,2.7413-6.3858v-52.5052Z"/>
      <path class="cls-4" d="M678.5657,1124.7619v22.8823a17.599,17.599,0,0,1-3.8376.4731q-10.2805,0-17.1345-8.7509t-6.8531-21.9364q0-12.8292,6.9218-21.7589,6.9222-8.9268,16.8372-8.9283,11.0568,0,17.4312,8.3666t6.3739,22.8528v28.9134H681.2163v-27.317a13.8132,13.8132,0,0,0-1.7591-7.45,5.3712,5.3712,0,0,0-4.7291-2.779,5.7666,5.7666,0,0,0-4.66,2.5425,9.57,9.57,0,0,0-1.9648,6.031,9.7417,9.7417,0,0,0,1.7817,6.031,5.4433,5.4433,0,0,0,4.5236,2.3651A6.5108,6.5108,0,0,0,678.5657,1124.7619Z"/>
      <path class="cls-4" d="M723.48,1066.1665v22.5867h7.6759v23.3554H723.48q0,7.0376,1.713,9.6969t6.2827,2.6607v23.2372q-1.3252.0576-1.9647.0591a19.14,19.14,0,0,1-10.943-3.4885,25.2658,25.2658,0,0,1-8.2474-9.46q-3.9294-7.6275-3.9294-20.2217v-48.4254Z"/>
      <path class="cls-4" d="M767.5268,1119.736l16.9509-.8278q-.7314,12.7716-7.356,20.99t-16.1287,8.2188q-10.0526,0-16.9746-9.0466t-6.9218-22.1728q0-12.4744,6.99-21.345t16.7685-8.8692q8.5439,0,15.078,6.9771t8.133,17.7974l-17.3169.8278q-2.2392-3.7827-5.6655-3.7842a5.7624,5.7624,0,0,0-4.7978,2.4833,10.1164,10.1164,0,0,0-1.8729,6.2676,10.3024,10.3024,0,0,0,1.9873,6.4449,6.0154,6.0154,0,0,0,4.9576,2.6016Q765.6984,1126.2992,767.5268,1119.736Z"/>
      <path class="cls-4" d="M809.0132,1066.1665v24.6561q4.3409-4.08,8.6816-4.08,6.5792,0,10.44,6.1493t3.8612,16.6149v37.3686H814.9074v-31.16a13.7467,13.7467,0,0,0-.6166-5.0849,2.3953,2.3953,0,0,0-2.3989-1.3008q-2.8786,0-2.8787,5.4988v32.0472H791.9249v-80.7091Z"/>
      <path class="cls-4" d="M885.1809,1089.3445v57.5311H866.63v-80.7091h24.1707q15.9,0,24.9015,9.3421,10.6918,11.1752,10.6919,30.3324,0,18.33-9.1383,29.9186t-23.5309,11.589q-1.691,0-5.5287-.2365v-23.71h2.97q16.22,0,16.2206-17.5609,0-16.4965-15.9463-16.4965Z"/>
      <path class="cls-4" d="M978.6192,1120.9777H952.712a19.7987,19.7987,0,0,1,.2286-10.4656h8.6816q-.9158-6.5631-5.7112-6.5631-3.2,0-5.2094,3.5181a18.0119,18.0119,0,0,0-2.01,9.0169,19.2788,19.2788,0,0,0,1.9416,9.283q1.9419,3.5476,5.0946,3.5477,2.5593,0,4.9351-3.3112l9.7318,15.1367q-6.8081,6.9178-15.1231,6.9179-10.1445,0-17.0432-8.81t-6.8993-21.8181q0-12.9489,6.9674-21.8771t17.1114-8.9283q9.9149,0,16.6547,8.7213,6.7389,8.7228,6.7394,21.4929Q978.8017,1118.14,978.6192,1120.9777Z"/>
      <path class="cls-4" d="M1048.2057,1146.8756h-17.0883v-31.8107a14.8546,14.8546,0,0,0-.5935-5.0849,2.1492,2.1492,0,0,0-2.1477-1.4191q-2.8786,0-2.8787,6.5632v31.7515h-17.0883v-31.8107a14.321,14.321,0,0,0-.6172-5.0849,2.19,2.19,0,0,0-2.17-1.4191q-2.833,0-2.8325,6.5632v31.7515H985.701v-36.3043q0-9.9334,5.1626-16.881t12.5192-6.9475q7.5852,0,13.6162,8.2779,6.7169-8.2779,13.4337-8.2779,8.5429,0,13.7073,8.0414,4.0645,6.2675,4.0657,18.27Z"/>
      <path class="cls-4" d="M1079.8247,1086.6837q9.6851,0,16.6085,9.017,6.9213,9.0169,6.9218,21.6111,0,12.7716-7.013,21.7589-7.0142,8.9889-16.93,8.9874-9.9148,0-16.9509-9.0169-7.0379-9.0154-7.0367-21.7294,0-12.9489,7.0367-21.7885T1079.8247,1086.6837Zm-.4573,21.8181a5.6671,5.6671,0,0,0-4.66,2.572,11.1879,11.1879,0,0,0,.0225,12.5646,5.4748,5.4748,0,0,0,9.3207,0,11.185,11.185,0,0,0,.0237-12.5646A5.7066,5.7066,0,0,0,1079.3674,1108.5018Z"/>
      <path class="cls-4" d="M1179.9794,1066.1665l-27.1862,85.321-27.0036-85.321h21.475l5.7111,25.1883,6.3058-25.1883Z"/>
      <path class="cls-4" d="M1199.854,1087.9254v58.95h-17.0883v-58.95Zm-8.4986-26.3118a7.5192,7.5192,0,0,1,6.0085,3.1634,12.7045,12.7045,0,0,1,.1374,15.0479,7.8651,7.8651,0,0,1-12.2906,0,12.7063,12.7063,0,0,1,.1363-15.0479A7.5175,7.5175,0,0,1,1191.3554,1061.6136Z"/>
      <path class="cls-4" d="M1237.9611,1066.1665H1255.05v49.135q0,13.54-5.4825,22.0545a24.0771,24.0771,0,0,1-8.0188,7.8049,19.2987,19.2987,0,0,1-9.984,2.8972q-10.1886,0-17.18-8.8691t-6.9905-21.759a34.5624,34.5624,0,0,1,6.9443-21.5815q6.945-9.1043,16.4487-9.1057a43.6792,43.6792,0,0,1,4.5691.3548v24.3606a6.0258,6.0258,0,0,0-4.2031-2.1286,5.5684,5.5684,0,0,0-4.5466,2.5129,9.7762,9.7762,0,0,0-1.8955,6.0606,9.1186,9.1186,0,0,0,1.9642,5.8832,5.8648,5.8648,0,0,0,4.7065,2.4538q6.58,0,6.5794-11.7664Z"/>
      <path class="cls-4" d="M1308.827,1120.9777H1282.92a19.8152,19.8152,0,0,1,.2286-10.4656h8.6822q-.9156-6.5631-5.7123-6.5631-3.1978,0-5.2088,3.5181a18.0172,18.0172,0,0,0-2.01,9.0169,19.2916,19.2916,0,0,0,1.9416,9.283q1.9428,3.5476,5.0951,3.5477,2.5576,0,4.9351-3.3112l9.7318,15.1367q-6.8081,6.9178-15.1242,6.9179-10.1428,0-17.0421-8.81t-6.8993-21.8181q0-12.9489,6.968-21.8771t17.1108-8.9283q9.9148,0,16.6547,8.7213,6.7389,8.7228,6.7394,21.4929Q1309.0106,1118.14,1308.827,1120.9777Z"/>
      <path class="cls-4" d="M1337.5223,1086.6837q9.6851,0,16.6085,9.017,6.9213,9.0169,6.9219,21.6111,0,12.7716-7.0131,21.7589-7.0142,8.9889-16.9295,8.9874-9.9149,0-16.9509-9.0169t-7.0367-21.7294q0-12.9489,7.0367-21.7885T1337.5223,1086.6837Zm-.4573,21.8181a5.6671,5.6671,0,0,0-4.66,2.572,11.1879,11.1879,0,0,0,.0225,12.5646,5.4748,5.4748,0,0,0,9.3207,0,11.185,11.185,0,0,0,.0237-12.5646A5.7066,5.7066,0,0,0,1337.065,1108.5018Z"/>
    </g>
  </g>
</svg>
